<svg width="45" height="41" viewBox="0 0 45 41" fill="none" xmlns="http://www.w3.org/2000/svg">
<path d="M44.25 39.4815H39.75V11.3889C39.75 10.9696 39.4142 10.6296 39 10.6296H26.25V0.759259C26.25 0.339958 25.9142 0 25.5 0H6C5.58581 0 5.25 0.339958 5.25 0.759259V39.4815H0.75C0.335812 39.4815 0 39.8214 0 40.2407C0 40.66 0.335812 41 0.75 41H44.25C44.6642 41 45 40.66 45 40.2407C45 39.8214 44.6642 39.4815 44.25 39.4815ZM24.75 39.4815H6.75V1.51852H24.75V39.4815ZM38.25 39.4815H26.25V12.1481H38.25V39.4815Z" fill="#03A06C"/>
<path d="M29.75 20H34.25C34.6642 20 35 19.6642 35 19.25V14.75C35 14.3358 34.6642 14 34.25 14H29.75C29.3358 14 29 14.3358 29 14.75V19.25C29 19.6642 29.3358 20 29.75 20ZM30.5 15.5H33.5V18.5H30.5V15.5Z" fill="#03A06C"/>
<path d="M29.75 27H34.25C34.6642 27 35 26.6642 35 26.25V21.75C35 21.3358 34.6642 21 34.25 21H29.75C29.3358 21 29 21.3358 29 21.75V26.25C29 26.6642 29.3358 27 29.75 27ZM30.5 22.5H33.5V25.5H30.5V22.5Z" fill="#03A06C"/>
<path d="M29.75 35H34.25C34.6642 35 35 34.6642 35 34.25V29.75C35 29.3358 34.6642 29 34.25 29H29.75C29.3358 29 29 29.3358 29 29.75V34.25C29 34.6642 29.3358 35 29.75 35ZM30.5 30.5H33.5V33.5H30.5V30.5Z" fill="#03A06C"/>
<path d="M17.75 20H22.25C22.6642 20 23 19.6642 23 19.25V14.75C23 14.3358 22.6642 14 22.25 14H17.75C17.3358 14 17 14.3358 17 14.75V19.25C17 19.6642 17.3358 20 17.75 20ZM18.5 15.5H21.5V18.5H18.5V15.5Z" fill="#03A06C"/>
<path d="M17.75 12H22.25C22.6642 12 23 11.6642 23 11.25V6.75C23 6.33581 22.6642 6 22.25 6H17.75C17.3358 6 17 6.33581 17 6.75V11.25C17 11.6642 17.3358 12 17.75 12ZM18.5 7.5H21.5V10.5H18.5V7.5Z" fill="#03A06C"/>
<path d="M17.75 27H22.25C22.6642 27 23 26.6642 23 26.25V21.75C23 21.3358 22.6642 21 22.25 21H17.75C17.3358 21 17 21.3358 17 21.75V26.25C17 26.6642 17.3358 27 17.75 27ZM18.5 22.5H21.5V25.5H18.5V22.5Z" fill="#03A06C"/>
<path d="M17.75 35H22.25C22.6642 35 23 34.6642 23 34.25V29.75C23 29.3358 22.6642 29 22.25 29H17.75C17.3358 29 17 29.3358 17 29.75V34.25C17 34.6642 17.3358 35 17.75 35ZM18.5 30.5H21.5V33.5H18.5V30.5Z" fill="#03A06C"/>
<path d="M9.75 20H14.25C14.6642 20 15 19.6642 15 19.25V14.75C15 14.3358 14.6642 14 14.25 14H9.75C9.33581 14 9 14.3358 9 14.75V19.25C9 19.6642 9.33581 20 9.75 20ZM10.5 15.5H13.5V18.5H10.5V15.5Z" fill="#03A06C"/>
<path d="M9.75 12H14.25C14.6642 12 15 11.6642 15 11.25V6.75C15 6.33581 14.6642 6 14.25 6H9.75C9.33581 6 9 6.33581 9 6.75V11.25C9 11.6642 9.33581 12 9.75 12ZM10.5 7.5H13.5V10.5H10.5V7.5Z" fill="#03A06C"/>
<path d="M9.75 27H14.25C14.6642 27 15 26.6642 15 26.25V21.75C15 21.3358 14.6642 21 14.25 21H9.75C9.33581 21 9 21.3358 9 21.75V26.25C9 26.6642 9.33581 27 9.75 27ZM10.5 22.5H13.5V25.5H10.5V22.5Z" fill="#03A06C"/>
<path d="M9.75 35H14.25C14.6642 35 15 34.6642 15 34.25V29.75C15 29.3358 14.6642 29 14.25 29H9.75C9.33581 29 9 29.3358 9 29.75V34.25C9 34.6642 9.33581 35 9.75 35ZM10.5 30.5H13.5V33.5H10.5V30.5Z" fill="#03A06C"/>
</svg>
