<svg width="40" height="40" viewBox="0 0 40 40" fill="none" xmlns="http://www.w3.org/2000/svg">
<path d="M34.1029 12.7148V6.02108C34.1029 5.46879 33.6552 5.02108 33.1029 5.02108H22.9383V1.00772C22.9383 0.455435 22.4906 0.00772095 21.9383 0.00772095H12.1645C11.6122 0.00772095 11.1645 0.455436 11.1645 1.00772V5.02108H1C0.447716 5.02108 0 5.4688 0 6.02108V25.5478C0 26.1001 0.447715 26.5478 1 26.5478H17.276V38.9922C17.276 39.5445 17.7237 39.9922 18.276 39.9922H33.392C36.9739 39.9922 40 36.8587 40 33.1497V13.7148C40 13.1625 39.5523 12.7148 39 12.7148H34.1029ZM24.0648 12.7148L31.7591 8.23202V12.7148H24.0648ZM19.4591 12.6858H14.6438L5.51109 7.36483H28.5918L19.4591 12.6858ZM15.4991 15.0295H17.2761V17.0698H15.4991V15.0295ZM13.5083 2.35147H20.5945V5.02108H13.5083V2.35147ZM2.34375 24.2041V8.23202L13.1554 14.5311V19.4134H17.2761V24.2041H2.34375ZM19.6198 15.0586H37.6562L37.6559 30.1593L37.656 30.1759C37.6627 30.6419 37.4949 31.0723 37.1838 31.3878C36.8927 31.6831 36.4993 31.8458 36.0762 31.8458H31.7029V36.0217C31.7029 36.8546 31.0774 37.5431 30.2706 37.6483H19.6197L19.6198 15.0586ZM33.7042 37.6345C33.9238 37.1411 34.0467 36.5957 34.0467 36.0218V34.1896H36.0762C36.6067 34.1896 37.1195 34.0857 37.5919 33.8879C37.4397 34.7799 37.0186 35.6338 36.3837 36.3066C35.6438 37.0905 34.702 37.554 33.7042 37.6345Z" fill="#03A06C"/>
<path fill-rule="evenodd" clip-rule="evenodd" d="M10.6645 1.00772C10.6645 0.179293 11.3361 -0.492279 12.1645 -0.492279H21.9383C22.7667 -0.492279 23.4383 0.179292 23.4383 1.00772V4.52108H33.1029C33.9313 4.52108 34.6029 5.19265 34.6029 6.02108V12.2148H39C39.8284 12.2148 40.5 12.8864 40.5 13.7148V33.1497C40.5 37.1183 37.2663 40.4922 33.392 40.4922H18.276C17.4476 40.4922 16.776 39.8206 16.776 38.9922V27.0478H1C0.171573 27.0478 -0.5 26.3762 -0.5 25.5478V6.02108C-0.5 5.19265 0.171574 4.52108 1 4.52108H10.6645V1.00772ZM12.1645 0.507721C11.8884 0.507721 11.6645 0.731579 11.6645 1.00772V5.52108H1C0.723858 5.52108 0.5 5.74494 0.5 6.02108V25.5478C0.5 25.8239 0.723858 26.0478 1 26.0478H17.776V38.9922C17.776 39.2683 17.9999 39.4922 18.276 39.4922H33.392C36.6815 39.4922 39.5 36.5992 39.5 33.1497V13.7148C39.5 13.4387 39.2761 13.2148 39 13.2148H33.6029V6.02108C33.6029 5.74494 33.379 5.52108 33.1029 5.52108H22.4383V1.00772C22.4383 0.731578 22.2144 0.507721 21.9383 0.507721H12.1645ZM13.0083 1.85147H21.0945V5.52108H13.0083V1.85147ZM14.0083 2.85147V4.52108H20.0945V2.85147H14.0083ZM3.6597 6.86483H30.4432L19.5942 13.1858H14.5087L3.6597 6.86483ZM7.36249 7.86483L14.7788 12.1858H19.3241L26.7404 7.86483H7.36249ZM32.2591 7.36204V13.2148H22.2134L32.2591 7.36204ZM1.84375 7.36204L13.6554 14.2437V18.9134H17.7761V24.7041H1.84375V7.36204ZM2.84375 9.102V23.7041H16.7761V19.9134H12.6554V14.8184L2.84375 9.102ZM25.9163 12.2148H31.2591V9.102L25.9163 12.2148ZM14.9991 14.5295H17.7761V17.5698H14.9991V14.5295ZM15.9991 15.5295V16.5698H16.7761V15.5295H15.9991ZM19.1198 14.5586H38.1563L38.1559 30.1585L38.156 30.1688C38.156 30.1695 38.156 30.1702 38.156 30.1709C38.1639 30.7623 37.9497 31.3232 37.5399 31.7388C37.1526 32.1316 36.6301 32.3458 36.0762 32.3458H32.2029V36.0217C32.2029 37.1111 31.3858 38.0071 30.3353 38.1441L30.3031 38.1483H19.1197L19.1198 14.5586ZM20.1198 15.5586L20.1197 37.1483H30.2352C30.784 37.0623 31.2029 36.5881 31.2029 36.0217V31.3458H36.0762C36.3685 31.3458 36.6327 31.2346 36.8278 31.0368C37.0397 30.8219 37.1609 30.5228 37.1561 30.1831L37.156 30.1783L37.1559 30.1617L37.1559 30.1593L37.1562 15.5586H20.1198ZM38.2377 33.0753L38.0848 33.972C37.9161 34.9607 37.4503 35.9049 36.7473 36.6498C35.9285 37.5172 34.8739 38.0417 33.7444 38.1329L32.9051 38.2007L33.2474 37.4313C33.4393 36.9999 33.5467 36.5236 33.5467 36.0218V33.6896H36.0762C36.541 33.6896 36.9881 33.5986 37.3987 33.4267L38.2377 33.0753ZM36.8713 34.6189C36.6115 34.6657 36.3457 34.6896 36.0762 34.6896H34.5467V36.0218C34.5467 36.3506 34.5108 36.6713 34.443 36.9801C35.0205 36.7927 35.5609 36.4499 36.0201 35.9634C36.3892 35.5723 36.6775 35.112 36.8713 34.6189Z" fill="white"/>
<path d="M23.3215 20.0326C23.3215 19.4803 23.7692 19.0326 24.3215 19.0326H24.6653C25.2176 19.0326 25.6653 19.4803 25.6653 20.0326V25.3962C25.6653 25.9484 25.2176 26.3962 24.6653 26.3962H24.3215C23.7692 26.3962 23.3215 25.9484 23.3215 25.3962V20.0326Z" fill="#03A06C"/>
<path fill-rule="evenodd" clip-rule="evenodd" d="M23.2216 20.0326C23.2216 19.425 23.714 18.9326 24.3216 18.9326H24.6653C25.2728 18.9326 25.7653 19.425 25.7653 20.0326V25.3962C25.7653 26.0037 25.2728 26.4962 24.6653 26.4962H24.3216C23.714 26.4962 23.2216 26.0037 23.2216 25.3962V20.0326ZM24.3216 19.1326C23.8245 19.1326 23.4216 19.5355 23.4216 20.0326V25.3962C23.4216 25.8932 23.8245 26.2962 24.3216 26.2962H24.6653C25.1624 26.2962 25.5653 25.8932 25.5653 25.3962V20.0326C25.5653 19.5355 25.1624 19.1326 24.6653 19.1326H24.3216Z" fill="white"/>
<path d="M27.6653 22.2409C27.6653 21.6886 28.113 21.2409 28.6653 21.2409H29.009C29.5613 21.2409 30.009 21.6886 30.009 22.2409V25.3961C30.009 25.9484 29.5613 26.3961 29.009 26.3961H28.6653C28.113 26.3961 27.6653 25.9484 27.6653 25.3961V22.2409Z" fill="#03A06C"/>
<path fill-rule="evenodd" clip-rule="evenodd" d="M27.5653 22.2409C27.5653 21.6334 28.0578 21.1409 28.6653 21.1409H29.0091C29.6166 21.1409 30.1091 21.6334 30.1091 22.2409V25.3961C30.1091 26.0036 29.6166 26.4961 29.0091 26.4961H28.6653C28.0578 26.4961 27.5653 26.0036 27.5653 25.3961V22.2409ZM28.6653 21.3409C28.1683 21.3409 27.7653 21.7438 27.7653 22.2409V25.3961C27.7653 25.8932 28.1683 26.2961 28.6653 26.2961H29.0091C29.5061 26.2961 29.9091 25.8932 29.9091 25.3961V22.2409C29.9091 21.7438 29.5061 21.3409 29.0091 21.3409H28.6653Z" fill="white"/>
<path d="M32.009 24.1159C32.009 23.5636 32.4567 23.1159 33.009 23.1159H33.3528C33.9051 23.1159 34.3528 23.5636 34.3528 24.1159V25.3961C34.3528 25.9484 33.9051 26.3961 33.3528 26.3961H33.009C32.4567 26.3961 32.009 25.9484 32.009 25.3961V24.1159Z" fill="#03A06C"/>
<path fill-rule="evenodd" clip-rule="evenodd" d="M31.9091 24.1159C31.9091 23.5084 32.4015 23.0159 33.0091 23.0159H33.3528C33.9603 23.0159 34.4528 23.5084 34.4528 24.1159V25.3961C34.4528 26.0036 33.9603 26.4961 33.3528 26.4961H33.0091C32.4015 26.4961 31.9091 26.0036 31.9091 25.3961V24.1159ZM33.0091 23.2159C32.512 23.2159 32.1091 23.6188 32.1091 24.1159V25.3961C32.1091 25.8932 32.512 26.2961 33.0091 26.2961H33.3528C33.8499 26.2961 34.2528 25.8932 34.2528 25.3961V24.1159C34.2528 23.6188 33.8499 23.2159 33.3528 23.2159H33.0091Z" fill="white"/>
</svg>
