<svg width="35" height="40" viewBox="0 0 35 40" fill="none" xmlns="http://www.w3.org/2000/svg">
<path d="M34.4165 25.3805C34.7388 25.3805 35 25.1181 35 24.7945V15.1469C35 14.548 34.5573 14.5573 33.791 14.5609V4.22656C33.791 3.90297 33.5298 3.64062 33.2075 3.64062H27.0078C26.6854 3.64062 26.4243 3.90297 26.4243 4.22656C26.4243 4.55016 26.6854 4.8125 27.0078 4.8125H32.624V14.5609H31.3746L31.3748 7.88023C31.3748 7.55664 31.1137 7.2943 30.7913 7.2943H4.20867C3.88643 7.2943 3.62518 7.55664 3.62518 7.88023L3.62533 14.5609H2.37597V1.17188H13.6336L17.0874 4.64086C17.1967 4.75078 17.3452 4.8125 17.5 4.8125H24.4653C24.7876 4.8125 25.0488 4.55016 25.0488 4.22656C25.0488 3.90297 24.7876 3.64062 24.4653 3.64062H17.7417L14.288 0.171641C14.1785 0.0617969 14.0301 0 13.8754 0H1.79248C1.47024 0 1.20899 0.262344 1.20899 0.585938V14.5609C0.521561 14.5697 0 14.548 0 15.1469V39.4141C0 39.7377 0.261248 40 0.583489 40H34.4165C34.7388 40 35 39.7377 35 39.4141V27.3477C35 27.0241 34.7388 26.7617 34.4165 26.7617C34.0942 26.7617 33.833 27.0241 33.833 27.3477V38.8281H1.16698V15.7328H7.99224C8.31448 15.7328 8.57573 15.4705 8.57573 15.1469C8.57573 14.8233 8.31448 14.5609 7.99224 14.5609H4.79239V13.3055H30.2076V14.5609H10.5347C10.2125 14.5609 9.95121 14.8233 9.95121 15.1469C9.95121 15.4705 10.2125 15.7328 10.5347 15.7328H33.833V24.7945C33.833 25.1181 34.0943 25.3805 34.4165 25.3805ZM4.79216 8.46617H30.2078V9.70469H4.79216V8.46617ZM4.79216 12.1315V10.8929H30.2078V12.1315H4.79216Z" fill="#03A06C"/>
<path d="M10 26C10 30.4112 13.5888 34 18 34C22.3332 34 26 30.3447 26 26C26 21.5888 22.4112 18 18 18C13.5888 18 10 21.5888 10 26ZM22.3248 31.2541C19.8564 33.2894 16.1255 33.2865 13.6598 31.2411V28.6049C13.6598 28.3712 13.8297 28.1588 14.084 28.0722L16.7223 27.407H19.2623L21.9005 28.0722C22.1549 28.1588 22.3248 28.3712 22.3248 28.6049V31.2541ZM16.1279 24.3601V23.515C16.1279 22.492 16.9677 21.6598 18 21.6598C19.0323 21.6598 19.8721 22.4921 19.8721 23.515V24.3601C19.8721 25.3816 19.0347 26.2128 18.0046 26.2152H17.9954C16.9652 26.2128 16.1279 25.3816 16.1279 24.3601ZM24.8081 26C24.8081 27.4863 24.328 28.8619 23.5166 29.9826V28.6049C23.5166 27.8452 23.0062 27.1727 22.2467 26.9314C22.2351 26.9278 22.2236 26.9245 22.2119 26.9215L20.2489 26.4266C20.7543 25.883 21.0638 25.157 21.0638 24.36V23.5148C21.0638 21.8347 19.6894 20.4678 17.9999 20.4678C16.3105 20.4678 14.936 21.8347 14.936 23.5148V24.36C14.936 25.1553 15.2444 25.8803 15.748 26.4234L13.7726 26.9214C13.761 26.9244 13.7494 26.9277 13.7379 26.9313C12.9783 27.1725 12.4679 27.845 12.4679 28.6047V29.9609C11.6659 28.844 11.1917 27.4767 11.1917 25.9998C11.1917 22.2457 14.2459 19.1916 17.9999 19.1916C21.754 19.1918 24.8081 22.246 24.8081 26Z" fill="#03A06C"/>
</svg>
