<svg width="20" height="20" viewBox="0 0 20 20" fill="none" xmlns="http://www.w3.org/2000/svg">
<path d="M10 10C11.3738 10 12.5632 9.50727 13.5353 8.53511C14.5071 7.56312 15 6.37382 15 4.99984C15 3.62634 14.5073 2.43688 13.5352 1.46457C12.563 0.49273 11.3736 0 10 0C8.62607 0 7.43681 0.49273 6.46484 1.46473C5.49287 2.43673 5 3.62618 5 4.99984C5 6.37382 5.49287 7.56327 6.46484 8.53527C7.43712 9.50711 8.62654 10 10 10ZM7.32515 2.32491C8.07095 1.57908 8.94583 1.21654 10 1.21654C11.054 1.21654 11.929 1.57908 12.675 2.32491C13.4208 3.07089 13.7835 3.94596 13.7835 4.99984C13.7835 6.05404 13.4208 6.92895 12.675 7.67493C11.929 8.42092 11.054 8.78346 10 8.78346C8.94615 8.78346 8.07127 8.42076 7.32515 7.67493C6.57919 6.92911 6.2165 6.05404 6.2165 4.99984C6.2165 3.94596 6.57919 3.07089 7.32515 2.32491Z" fill="#03A06C"/>
<path d="M18.9588 15.5306C18.9313 15.1537 18.8756 14.7425 18.7937 14.3084C18.711 13.8709 18.6045 13.4574 18.477 13.0794C18.3452 12.6888 18.1663 12.303 17.9447 11.9333C17.7151 11.5496 17.4453 11.2155 17.1424 10.9405C16.8258 10.6529 16.438 10.4216 15.9897 10.253C15.5429 10.0852 15.0478 10.0001 14.5181 10.0001C14.3101 10.0001 14.109 10.0812 13.7205 10.3213C13.4814 10.4693 13.2017 10.6405 12.8896 10.8299C12.6226 10.9913 12.261 11.1426 11.8144 11.2795C11.3787 11.4134 10.9362 11.4813 10.4994 11.4813C10.0629 11.4813 9.62042 11.4134 9.18436 11.2795C8.73819 11.1427 8.37644 10.9915 8.10998 10.83C7.80078 10.6424 7.52095 10.4712 7.27828 10.3211C6.8901 10.081 6.68894 10 6.48093 10C5.95113 10 5.45615 10.0852 5.00952 10.2531C4.56149 10.4215 4.17362 10.6528 3.85664 10.9407C3.55381 11.2158 3.28393 11.5498 3.05447 11.9333C2.83326 12.303 2.65417 12.6886 2.52234 13.0796C2.39502 13.4575 2.28853 13.8709 2.20583 14.3084C2.12374 14.742 2.06825 15.1533 2.04073 15.5311C2.01368 15.9005 2 16.2849 2 16.6734C2 17.6831 2.33812 18.5006 3.00488 19.1034C3.66341 19.6983 4.53459 20 5.59435 20H15.4056C16.4651 20 17.3363 19.6983 17.995 19.1034C18.6619 18.501 19 17.6833 19 16.6732C18.9998 16.2834 18.986 15.899 18.9588 15.5306ZM17.1717 18.2821C16.7365 18.6753 16.1588 18.8664 15.4055 18.8664H5.59435C4.84085 18.8664 4.26316 18.6753 3.82819 18.2823C3.40146 17.8967 3.19408 17.3702 3.19408 16.6734C3.19408 16.3109 3.20667 15.953 3.23185 15.6094C3.25641 15.2724 3.30663 14.9021 3.38109 14.5086C3.45462 14.12 3.54821 13.7554 3.65952 13.4252C3.76632 13.1087 3.91198 12.7952 4.09263 12.4932C4.26503 12.2055 4.46339 11.9586 4.68228 11.7596C4.88702 11.5735 5.14508 11.4212 5.44916 11.307C5.73038 11.2013 6.04643 11.1435 6.38952 11.1348C6.43134 11.1559 6.50581 11.1962 6.62644 11.2708C6.87191 11.4227 7.15485 11.596 7.46763 11.7856C7.82021 11.999 8.27446 12.1917 8.81716 12.3581C9.37199 12.5284 9.93786 12.6149 10.4995 12.6149C11.0612 12.6149 11.6272 12.5284 12.1817 12.3582C12.7249 12.1916 13.179 11.999 13.5321 11.7853C13.8521 11.5911 14.1272 11.4228 14.3726 11.2708C14.4933 11.1963 14.5677 11.1559 14.6095 11.1348C14.9528 11.1435 15.2688 11.2013 15.5502 11.307C15.8541 11.4212 16.1122 11.5737 16.3169 11.7596C16.5358 11.9584 16.7342 12.2053 16.9066 12.4934C17.0874 12.7952 17.2332 13.1088 17.3399 13.4251C17.4513 13.7557 17.5451 14.1202 17.6184 14.5085C17.6927 14.9027 17.7431 15.2731 17.7677 15.6096V15.6099C17.793 15.9521 17.8058 16.3099 17.8059 16.6734C17.8058 17.3704 17.5984 17.8967 17.1717 18.2821Z" fill="#03A06C"/>
</svg>
