<svg width="45" height="41" fill="none" xmlns="http://www.w3.org/2000/svg"><path d="M44.25 39.481h-4.5V11.39c0-.42-.336-.76-.75-.76H26.25V.76c0-.42-.336-.76-.75-.76H6c-.414 0-.75.34-.75.76v38.72H.75c-.414 0-.75.34-.75.76 0 .419.336.759.75.759h43.5c.414 0 .75-.34.75-.76a.755.755 0 00-.75-.759zm-19.5 0h-18V1.52h18v37.96zm13.5 0h-12V12.148h12v27.333z" fill="#03A06C"/><path d="M29.75 20h4.5a.75.75 0 00.75-.75v-4.5a.75.75 0 00-.75-.75h-4.5a.75.75 0 00-.75.75v4.5c0 .414.336.75.75.75zm.75-4.5h3v3h-3v-3zM29.75 27h4.5a.75.75 0 00.75-.75v-4.5a.75.75 0 00-.75-.75h-4.5a.75.75 0 00-.75.75v4.5c0 .414.336.75.75.75zm.75-4.5h3v3h-3v-3zM29.75 35h4.5a.75.75 0 00.75-.75v-4.5a.75.75 0 00-.75-.75h-4.5a.75.75 0 00-.75.75v4.5c0 .414.336.75.75.75zm.75-4.5h3v3h-3v-3zM17.75 20h4.5a.75.75 0 00.75-.75v-4.5a.75.75 0 00-.75-.75h-4.5a.75.75 0 00-.75.75v4.5c0 .414.336.75.75.75zm.75-4.5h3v3h-3v-3zm-.75-3.5h4.5a.75.75 0 00.75-.75v-4.5a.75.75 0 00-.75-.75h-4.5a.75.75 0 00-.75.75v4.5c0 .414.336.75.75.75zm.75-4.5h3v3h-3v-3zM17.75 27h4.5a.75.75 0 00.75-.75v-4.5a.75.75 0 00-.75-.75h-4.5a.75.75 0 00-.75.75v4.5c0 .414.336.75.75.75zm.75-4.5h3v3h-3v-3zM17.75 35h4.5a.75.75 0 00.75-.75v-4.5a.75.75 0 00-.75-.75h-4.5a.75.75 0 00-.75.75v4.5c0 .414.336.75.75.75zm.75-4.5h3v3h-3v-3zM9.75 20h4.5a.75.75 0 00.75-.75v-4.5a.75.75 0 00-.75-.75h-4.5a.75.75 0 00-.75.75v4.5c0 .414.336.75.75.75zm.75-4.5h3v3h-3v-3zM9.75 12h4.5a.75.75 0 00.75-.75v-4.5a.75.75 0 00-.75-.75h-4.5a.75.75 0 00-.75.75v4.5c0 .414.336.75.75.75zm.75-4.5h3v3h-3v-3zM9.75 27h4.5a.75.75 0 00.75-.75v-4.5a.75.75 0 00-.75-.75h-4.5a.75.75 0 00-.75.75v4.5c0 .414.336.75.75.75zm.75-4.5h3v3h-3v-3zM9.75 35h4.5a.75.75 0 00.75-.75v-4.5a.75.75 0 00-.75-.75h-4.5a.75.75 0 00-.75.75v4.5c0 .414.336.75.75.75zm.75-4.5h3v3h-3v-3z" fill="#03A06C"/></svg>