<svg width="40" height="40" fill="none" xmlns="http://www.w3.org/2000/svg"><path d="M34.103 12.715V6.02a1 1 0 00-1-1H22.938V1.008a1 1 0 00-1-1h-9.773a1 1 0 00-1 1V5.02H1a1 1 0 00-1 1v19.527a1 1 0 001 1h16.276v12.444a1 1 0 001 1h15.116c3.582 0 6.608-3.133 6.608-6.842V13.715a1 1 0 00-1-1h-4.897zm-10.038 0l7.694-4.483v4.483h-7.694zm-4.606-.03h-4.815L5.51 7.366h23.08l-9.132 5.32zM15.5 15.03h1.777v2.04H15.5v-2.04zM13.51 2.35h7.085v2.67h-7.086V2.35zM2.343 24.204V8.232l10.811 6.3v4.881h4.121v4.791H2.344zM19.62 15.06h18.036v15.116c.007.466-.161.896-.472 1.212a1.542 1.542 0 01-1.108.458h-4.373v4.176c0 .833-.626 1.521-1.432 1.626H19.62v-22.59zm14.084 22.576c.22-.494.343-1.04.343-1.613V34.19h2.03c.53 0 1.043-.104 1.515-.302a4.699 4.699 0 01-1.208 2.419c-.74.783-1.682 1.247-2.68 1.328z" fill="#03A06C"/><path fill-rule="evenodd" clip-rule="evenodd" d="M10.665 1.008a1.5 1.5 0 011.5-1.5h9.773a1.5 1.5 0 011.5 1.5V4.52h9.665a1.5 1.5 0 011.5 1.5v6.194H39a1.5 1.5 0 011.5 1.5V33.15c0 3.968-3.234 7.342-7.108 7.342H18.276a1.5 1.5 0 01-1.5-1.5V27.048H1a1.5 1.5 0 01-1.5-1.5V6.02A1.5 1.5 0 011 4.52h9.665V1.008zm1.5-.5a.5.5 0 00-.5.5V5.52H1a.5.5 0 00-.5.5v19.527a.5.5 0 00.5.5h16.776v12.944a.5.5 0 00.5.5h15.116c3.29 0 6.108-2.893 6.108-6.342V13.715a.5.5 0 00-.5-.5h-5.397V6.02a.5.5 0 00-.5-.5H22.438V1.008a.5.5 0 00-.5-.5h-9.773zm.843 1.343h8.087v3.67h-8.087v-3.67zm1 1v1.67h6.087v-1.67h-6.087zM3.66 6.865h26.783l-10.849 6.32H14.51L3.66 6.865zm3.702 1l7.417 4.32h4.545l7.416-4.32H7.362zm24.897-.503v5.853H22.213L32.26 7.362zm-30.415 0l11.811 6.882v4.67h4.121v5.79H1.844V7.362zm1 1.74v14.602h13.932v-3.79h-4.12v-5.096L2.843 9.102zm23.072 3.113h5.343V9.102l-5.343 3.113zM15 14.53h2.777v3.04H15v-3.04zm1 1v1.04h.777v-1.04H16zm3.12-.971h19.037V30.17a2.173 2.173 0 01-.616 1.568 2.04 2.04 0 01-1.464.607h-3.873v3.676c0 1.09-.817 1.985-1.868 2.122l-.032.004H19.12v-23.59zm1 1v21.59h10.116c.549-.087.968-.56.968-1.127v-4.676h4.873c.292 0 .557-.111.752-.31.212-.214.333-.513.328-.853V15.56H20.12zm18.119 17.516l-.153.897a5.198 5.198 0 01-1.338 2.678c-.819.867-1.873 1.392-3.003 1.483l-.839.068.342-.77c.192-.431.3-.907.3-1.41V33.69h2.53c.464 0 .911-.091 1.322-.263l.839-.352zM36.87 34.62a4.46 4.46 0 01-.795.07h-1.53v1.333c0 .329-.035.65-.103.958a3.777 3.777 0 001.577-1.017c.37-.39.657-.851.851-1.344z" fill="#fff"/><path d="M23.322 20.033a1 1 0 011-1h.343a1 1 0 011 1v5.363a1 1 0 01-1 1h-.343a1 1 0 01-1-1v-5.363z" fill="#03A06C"/><path fill-rule="evenodd" clip-rule="evenodd" d="M23.222 20.033a1.1 1.1 0 011.1-1.1h.343a1.1 1.1 0 011.1 1.1v5.363a1.1 1.1 0 01-1.1 1.1h-.343a1.1 1.1 0 01-1.1-1.1v-5.363zm1.1-.9a.9.9 0 00-.9.9v5.363a.9.9 0 00.9.9h.343a.9.9 0 00.9-.9v-5.363a.9.9 0 00-.9-.9h-.343z" fill="#fff"/><path d="M27.665 22.24a1 1 0 011-1h.344a1 1 0 011 1v3.156a1 1 0 01-1 1h-.344a1 1 0 01-1-1v-3.155z" fill="#03A06C"/><path fill-rule="evenodd" clip-rule="evenodd" d="M27.565 22.24a1.1 1.1 0 011.1-1.1h.344a1.1 1.1 0 011.1 1.1v3.156a1.1 1.1 0 01-1.1 1.1h-.344a1.1 1.1 0 01-1.1-1.1v-3.155zm1.1-.9a.9.9 0 00-.9.9v3.156a.9.9 0 00.9.9h.344a.9.9 0 00.9-.9v-3.155a.9.9 0 00-.9-.9h-.344z" fill="#fff"/><path d="M32.009 24.116a1 1 0 011-1h.344a1 1 0 011 1v1.28a1 1 0 01-1 1h-.344a1 1 0 01-1-1v-1.28z" fill="#03A06C"/><path fill-rule="evenodd" clip-rule="evenodd" d="M31.91 24.116a1.1 1.1 0 011.1-1.1h.343a1.1 1.1 0 011.1 1.1v1.28a1.1 1.1 0 01-1.1 1.1h-.344a1.1 1.1 0 01-1.1-1.1v-1.28zm1.1-.9a.9.9 0 00-.9.9v1.28a.9.9 0 00.9.9h.343a.9.9 0 00.9-.9v-1.28a.9.9 0 00-.9-.9h-.344z" fill="#fff"/></svg>