<svg width="35" height="40" fill="none" xmlns="http://www.w3.org/2000/svg"><path d="M34.416 25.38a.585.585 0 00.584-.585v-9.648c0-.599-.443-.59-1.209-.586V4.227a.585.585 0 00-.583-.586h-6.2a.585.585 0 00-.584.586c0 .323.261.585.584.585h5.616v9.749h-1.25V7.88a.585.585 0 00-.583-.587H4.21a.585.585 0 00-.584.586v6.68h-1.25V1.173h11.258l3.453 3.469c.11.11.258.171.413.171h6.965a.585.585 0 00.584-.585.585.585 0 00-.584-.586h-6.723L14.288.17a.583.583 0 00-.413-.17H1.792a.585.585 0 00-.583.586V14.56C.522 14.57 0 14.548 0 15.147v24.267c0 .324.261.586.583.586h33.834a.585.585 0 00.583-.586V27.348a.585.585 0 00-.584-.586.585.585 0 00-.583.586v11.48H1.167V15.733h6.825a.585.585 0 00.584-.586.585.585 0 00-.584-.586h-3.2v-1.255h25.416v1.255H10.535a.585.585 0 000 1.172h23.298v9.061c0 .324.261.587.584.587zM4.793 8.466h25.416v1.239H4.792V8.466zm0 3.666v-1.24h25.416v1.24H4.792z" fill="#03A06C"/><path d="M10 26c0 4.411 3.589 8 8 8 4.333 0 8-3.655 8-8 0-4.411-3.589-8-8-8s-8 3.589-8 8zm12.325 5.254c-2.469 2.035-6.2 2.032-8.665-.013v-2.636c0-.234.17-.446.424-.533l2.638-.665h2.54l2.639.665c.254.087.424.3.424.533v2.65zm-6.197-6.894v-.845c0-1.023.84-1.855 1.872-1.855s1.872.832 1.872 1.855v.845a1.866 1.866 0 01-1.867 1.855h-.01a1.866 1.866 0 01-1.867-1.855zm8.68 1.64a6.77 6.77 0 01-1.291 3.983v-1.378c0-.76-.51-1.432-1.27-1.674a.722.722 0 00-.035-.01l-1.963-.494a3.03 3.03 0 00.815-2.067v-.845A3.059 3.059 0 0018 20.468a3.059 3.059 0 00-3.064 3.047v.845c0 .795.308 1.52.812 2.063l-1.975.498a.718.718 0 00-.035.01c-.76.241-1.27.914-1.27 1.674v1.356A6.769 6.769 0 0111.192 26 6.816 6.816 0 0118 19.192 6.816 6.816 0 0124.808 26z" fill="#03A06C"/></svg>