<svg width="20" height="20" fill="none" xmlns="http://www.w3.org/2000/svg"><path d="M10 10c1.374 0 2.563-.493 3.535-1.465C14.507 7.563 15 6.374 15 5s-.493-2.563-1.465-3.535C12.563.493 11.374 0 10 0S7.437.493 6.465 1.465C5.493 2.437 5 3.626 5 5s.493 2.563 1.465 3.535C7.437 9.507 8.627 10 10 10zM7.325 2.325c.746-.746 1.62-1.108 2.675-1.108 1.054 0 1.929.362 2.675 1.108.746.746 1.108 1.621 1.108 2.675 0 1.054-.362 1.929-1.108 2.675-.746.746-1.621 1.108-2.675 1.108-1.054 0-1.929-.362-2.675-1.108C6.58 6.929 6.216 6.054 6.216 5c0-1.054.363-1.93 1.11-2.675z" fill="#03A06C"/><path d="M18.959 15.53a10.954 10.954 0 00-.165-1.222 9.225 9.225 0 00-.317-1.229 5.914 5.914 0 00-.532-1.146c-.23-.383-.5-.717-.803-.992a3.568 3.568 0 00-1.152-.688A4.173 4.173 0 0014.518 10c-.208 0-.409.081-.798.321-.239.148-.518.32-.83.509-.267.161-.629.313-1.076.45a4.476 4.476 0 01-1.315.201 4.48 4.48 0 01-1.315-.201c-.446-.137-.808-.288-1.074-.45a115.4 115.4 0 01-.832-.509c-.388-.24-.59-.321-.797-.321a4.16 4.16 0 00-1.471.253 3.55 3.55 0 00-1.153.688 4.376 4.376 0 00-.803.992c-.22.37-.4.756-.532 1.147a9.245 9.245 0 00-.316 1.228 10.79 10.79 0 00-.165 1.223c-.027.37-.041.754-.041 1.142 0 1.01.338 1.828 1.005 2.43.658.595 1.53.897 2.59.897h9.81c1.06 0 1.931-.302 2.59-.897.667-.602 1.005-1.42 1.005-2.43 0-.39-.014-.774-.041-1.142zm-1.787 2.752c-.436.393-1.013.584-1.767.584h-9.81c-.754 0-1.332-.19-1.767-.584-.427-.385-.634-.912-.634-1.609 0-.362.013-.72.038-1.064.024-.337.075-.707.15-1.1a8.16 8.16 0 01.278-1.084 4.83 4.83 0 01.433-.932 3.23 3.23 0 01.59-.733c.204-.187.462-.339.766-.453.281-.106.597-.164.94-.172.042.02.117.061.237.136.246.152.529.325.842.515.352.213.806.406 1.35.572.554.17 1.12.257 1.681.257.562 0 1.128-.087 1.683-.257.543-.166.997-.359 1.35-.573.32-.194.595-.362.84-.514a3.3 3.3 0 01.238-.136c.343.008.659.066.94.172.304.114.562.267.767.453.219.198.417.445.59.733.18.302.326.616.433.932.111.33.205.695.278 1.083.075.395.125.765.15 1.102.025.342.038.7.038 1.063 0 .697-.208 1.224-.634 1.61z" fill="#03A06C"/></svg>